<svg width="48" height="48" viewBox="0 0 48 48" fill="none" xmlns="http://www.w3.org/2000/svg">
<rect x="0.5" y="0.5" width="47" height="47" rx="15.5" fill="white" stroke="#EAEAEA"/>
<path d="M23.2007 21.2122C23.2007 22.2961 22.2937 23.2002 21.2046 23.2002C20.2472 23.2002 19.4309 22.5007 19.248 21.5951C19.2177 21.4592 19.2007 21.3195 19.2007 21.1751C19.2007 20.0834 20.0875 19.2002 21.1836 19.2002C21.7418 19.2002 22.2472 19.4349 22.6092 19.8093C22.9728 20.1707 23.2007 20.6686 23.2007 21.2122Z" fill="#BDBDBD"/>
<path fill-rule="evenodd" clip-rule="evenodd" d="M27.4832 16C30.1848 16 32 17.8896 32 20.7104V27.2816C32 27.3525 31.9925 27.4191 31.9851 27.4856C31.9799 27.5323 31.9746 27.579 31.972 27.6272C31.9703 27.6563 31.9695 27.6855 31.9686 27.7146C31.9675 27.7535 31.9664 27.7923 31.9632 27.8312C31.9616 27.8464 31.9586 27.861 31.9556 27.8756C31.9526 27.8902 31.9496 27.9048 31.948 27.92C31.9216 28.1712 31.8808 28.4112 31.824 28.644C31.8106 28.7022 31.7951 28.7583 31.7794 28.8148L31.776 28.8272C31.712 29.0528 31.6368 29.268 31.5464 29.4736C31.5306 29.5082 31.5139 29.5419 31.4971 29.5756C31.486 29.598 31.4749 29.6205 31.464 29.6432C31.3664 29.8392 31.2608 30.0272 31.1384 30.2016C31.1158 30.2339 31.0917 30.2641 31.0675 30.2944C31.0516 30.3145 31.0356 30.3345 31.02 30.3552C30.8928 30.52 30.76 30.6776 30.6096 30.8208C30.5796 30.8494 30.5471 30.8755 30.5147 30.9016C30.4944 30.9179 30.4741 30.9343 30.4544 30.9512C30.3 31.084 30.1424 31.2112 29.9688 31.32C29.9309 31.3438 29.8907 31.3638 29.8506 31.3837C29.8246 31.3965 29.7987 31.4094 29.7736 31.4232C29.5968 31.5208 29.4184 31.616 29.224 31.6896C29.1772 31.7074 29.1275 31.7202 29.0776 31.7331C29.0421 31.7423 29.0066 31.7514 28.972 31.7624C28.9547 31.7678 28.9374 31.7731 28.9201 31.7785C28.7465 31.8325 28.5734 31.8864 28.3864 31.9184C28.2781 31.9374 28.1631 31.9447 28.0481 31.952C27.9983 31.9551 27.9485 31.9583 27.8992 31.9624C27.8462 31.9664 27.7943 31.9728 27.7423 31.9792C27.6577 31.9896 27.5729 32 27.4832 32H20.5104C20.2096 32 19.9224 31.9696 19.6448 31.924C19.6344 31.9224 19.6248 31.9208 19.6152 31.9192C18.5328 31.7328 17.6344 31.2104 17.0048 30.4224C17.0004 30.4224 16.9987 30.4194 16.9964 30.4155C16.9949 30.413 16.9932 30.41 16.9904 30.4072C16.3576 29.6104 16 28.5392 16 27.2816V20.7104C16 17.8896 17.8168 16 20.5104 16H27.4832ZM20.5108 17.1157C18.4492 17.1157 17.1172 18.5293 17.1172 20.7101V27.2813C17.1172 27.8933 17.2308 28.4397 17.4252 28.9125C17.4336 28.9025 17.6167 28.6794 17.8555 28.3884C18.3223 27.8195 19.002 26.9912 19.0068 26.9869C19.5604 26.3549 20.5996 25.4125 21.9636 25.9829C22.2625 26.1069 22.5282 26.2766 22.7727 26.4329C22.7965 26.4481 22.8202 26.4632 22.8436 26.4781C23.302 26.7845 23.5716 26.9285 23.8516 26.9045C23.9676 26.8885 24.0764 26.8541 24.1796 26.7901C24.5689 26.5501 25.5782 25.12 25.8804 24.6918C25.9247 24.629 25.9539 24.5877 25.9636 24.5749C26.8356 23.4389 28.1796 23.1349 29.2996 23.8069C29.45 23.8965 30.5276 24.6493 30.8844 24.9517V20.7101C30.8844 18.5293 29.5524 17.1157 27.4836 17.1157H20.5108Z" fill="#BDBDBD"/>
</svg>
